<svg width="100" height="100" viewBox="0 0 100 100" fill="none" xmlns="http://www.w3.org/2000/svg">
<path opacity="0.0229128" fill-rule="evenodd" clip-rule="evenodd" d="M99 1H1V99H99V1ZM0 0V100H100V0H0Z" fill="#2B2B2B"/>
<path fill-rule="evenodd" clip-rule="evenodd" d="M50 73C62.7025 73 73 62.7025 73 50C73 37.2975 62.7025 27 50 27C37.2975 27 27 37.2975 27 50C27 62.7025 37.2975 73 50 73ZM50 76C64.3594 76 76 64.3594 76 50C76 35.6406 64.3594 24 50 24C35.6406 24 24 35.6406 24 50C24 64.3594 35.6406 76 50 76Z" fill="white"/>
</svg>
