<svg width="100" height="100" viewBox="0 0 100 100" fill="none" xmlns="http://www.w3.org/2000/svg">
<path opacity="0.0229128" fill-rule="evenodd" clip-rule="evenodd" d="M99 1H1V99H99V1ZM0 0V100H100V0H0Z" fill="#2B2B2B"/>
<path fill-rule="evenodd" clip-rule="evenodd" d="M73.4978 45.4251C72.4757 45.4251 71.4553 45.5342 70.4578 45.7507C67.2671 38.3404 59.8244 33.3965 51.7706 33.3965C41.7203 33.3965 33.3636 40.499 31.6994 50.3625C31.6765 50.3625 31.6536 50.3625 31.629 50.3625C25.0576 50.3625 19.7114 55.7265 19.7114 62.3211C19.7114 68.9125 25.0576 74.2749 31.629 74.2749H73.4978C81.4238 74.2749 87.8723 67.8039 87.8723 59.85C87.8723 51.896 81.4238 45.4251 73.4978 45.4251V45.4251ZM84.9813 59.85C84.9813 66.2102 79.83 71.3853 73.4978 71.3853H31.629C26.6513 71.3853 22.6024 67.3188 22.6024 62.3211C22.6024 57.3202 26.6513 53.2521 31.629 53.2521C31.9615 53.2521 32.3251 53.2781 32.7723 53.3335L34.2415 53.5158L34.3889 52.0442C35.2947 43.0614 42.7686 36.2876 51.7706 36.2876C59.1348 36.2876 65.7455 40.9776 68.2204 47.9614L68.6872 49.28L70.0188 48.8551C71.1507 48.4969 72.3201 48.3163 73.4978 48.3163C79.83 48.3163 84.9813 53.4897 84.9813 59.85V59.85Z" fill="white"/>
<path fill-rule="evenodd" clip-rule="evenodd" d="M17.0068 39.3778C17.5752 33.0843 23.1884 28.4236 29.5206 28.9885C32.7195 29.275 35.4958 30.8411 37.3892 33.1315C38.0788 32.4576 38.8306 31.8162 39.6463 31.2269C37.2664 28.3683 33.7874 26.4148 29.7843 26.0583C21.8273 25.3485 14.7727 31.2057 14.0585 39.1141C13.5967 44.2257 15.9029 48.9499 19.734 51.8525C20.1664 51.1134 20.7495 50.3059 21.5242 49.5148C18.476 47.2048 16.6399 43.4443 17.0068 39.3778" fill="white"/>
</svg>
