<svg width="100" height="100" viewBox="0 0 100 100" fill="none" xmlns="http://www.w3.org/2000/svg">
<g clip-path="url(#clip0_71_2653)">
<path opacity="0.0229128" fill-rule="evenodd" clip-rule="evenodd" d="M2.96078 1H99V99H2.96078V1ZM100 0V100H1.96078V0H100Z" fill="#2B2B2B"/>
</g>
<path fill-rule="evenodd" clip-rule="evenodd" d="M68.8855 77.0894C71.4978 77.2011 74.1701 77.0117 76.9152 76.4272C82.222 75.2987 86.5057 72.2679 90.2075 68.3125C90.753 67.7297 91.2717 67.1209 91.8631 66.4539C79.2049 67.8187 68.6452 63.9006 61.0629 53.44C53.525 43.0441 52.7011 31.5958 57.4655 19.6197C57.3975 19.6326 57.3153 19.631 57.2505 19.6634C49.9007 23.4325 44.4295 28.9745 41.746 36.9856C40.8827 36.7282 39.9434 36.5015 38.993 36.3655C39.0863 36.0805 39.1654 35.7972 39.265 35.5122C42.8672 25.2588 50.481 18.9575 60.2296 15.1462C60.8827 14.8921 61.5041 14.9924 61.9643 15.5672C62.4244 16.1371 62.4118 16.7621 62.0338 17.3838C61.9247 17.5619 61.8188 17.7416 61.7144 17.9213C58.351 23.6802 56.6954 29.9022 57.5319 36.5857C58.963 48.0113 64.7568 56.4044 74.9766 61.3247C81.3017 64.3702 87.9589 64.4867 94.6793 62.777C95.6312 62.5342 96.297 62.6815 96.6954 63.3032C97.0971 63.9314 97.0528 64.5321 96.395 65.3383C94.9102 67.1646 93.4854 69.0573 91.8583 70.7427C85.0367 77.8082 76.8061 80.9864 67.0813 79.9502C66.92 79.9211 66.7571 79.8968 66.5942 79.8693C67.407 79.1019 68.2024 78.192 68.8855 77.0894" fill="white"/>
<path fill-rule="evenodd" clip-rule="evenodd" d="M14.8445 52.825C15.8328 52.825 16.8179 52.9334 17.7809 53.1488C20.8597 45.7772 28.045 40.8618 35.8202 40.8618C45.5229 40.8618 53.5906 47.9257 55.1971 57.7355C55.2193 57.7355 55.243 57.7355 55.2651 57.7355C61.6092 57.7355 66.7705 63.0703 66.7705 69.6274C66.7705 76.1846 61.6092 81.5177 55.2651 81.5177H14.8445C7.19271 81.5177 0.968803 75.082 0.968803 67.1713C0.968803 59.2607 7.19271 52.825 14.8445 52.825V52.825ZM3.75975 67.1713C3.75975 73.497 8.73129 78.6439 14.8445 78.6439H55.2651C60.0706 78.6439 63.9796 74.5995 63.9796 69.6274C63.9796 64.6537 60.0706 60.6093 55.2651 60.6093C54.9441 60.6093 54.5947 60.6352 54.163 60.6887L52.7446 60.8716L52.6023 59.408C51.7262 50.4725 44.5124 43.7356 35.8202 43.7356C28.7107 43.7356 22.3287 48.4017 19.941 55.3474L19.4887 56.6572L18.2031 56.2363C17.1121 55.8785 15.9815 55.6988 14.8445 55.6988C8.73129 55.6988 3.75975 60.8441 3.75975 67.1713V67.1713Z" fill="white"/>
<defs>
<clipPath id="clip0_71_2653">
<rect width="98.0392" height="100" fill="white" transform="matrix(-1 0 0 1 100 0)"/>
</clipPath>
</defs>
</svg>
