<svg width="100" height="100" viewBox="0 0 100 100" fill="none" xmlns="http://www.w3.org/2000/svg">
<path fill-rule="evenodd" clip-rule="evenodd" d="M73.2938 39.9454C72.1092 39.9454 70.9277 40.0709 69.7708 40.3219C66.0769 31.7306 57.4569 26 48.1292 26C36.4908 26 26.8108 34.2332 24.8846 45.6699C24.8569 45.6684 24.8292 45.6684 24.8031 45.6684C17.1923 45.6684 11 51.8888 11 59.5327C11 67.175 17.1923 73.3923 24.8031 73.3923H73.2938C82.4723 73.3923 89.9415 65.8893 89.9415 56.6689C89.9415 47.4469 82.4723 39.9454 73.2938 39.9454V39.9454ZM86.5923 56.6689C86.5923 64.0434 80.6277 70.0418 73.2938 70.0418H24.8031C19.0385 70.0418 14.3477 65.3276 14.3477 59.5327C14.3477 53.7347 19.0385 49.0189 24.8031 49.0189C25.1877 49.0189 25.6077 49.0495 26.1262 49.1122L27.8262 49.325L27.9985 47.6184C29.0477 37.2041 37.7031 29.3505 48.1292 29.3505C56.66 29.3505 64.3154 34.7903 67.18 42.8857L67.7215 44.4133L69.2646 43.9219C70.5738 43.5056 71.9292 43.2959 73.2938 43.2959C80.6277 43.2959 86.5923 49.2944 86.5923 56.6689V56.6689Z" fill="white"/>
</svg>
