<svg width="100" height="100" viewBox="0 0 100 100" fill="none" xmlns="http://www.w3.org/2000/svg">
<path opacity="0.0229128" fill-rule="evenodd" clip-rule="evenodd" d="M1 1H99V99H1V1ZM100 0V100H0V0H100Z" fill="#2B2B2B"/>
<path fill-rule="evenodd" clip-rule="evenodd" d="M80.949 60.2289H87.5804C91.9033 60.2289 95.4199 56.6951 95.4199 52.3505C95.4199 48.0045 91.9033 44.4692 87.5804 44.4692C87.2924 44.4692 86.9763 44.4927 86.5879 44.5397L85.3118 44.6984L85.1848 43.4205C84.3961 35.6127 77.9065 29.7259 70.0862 29.7259C66.6908 29.7259 63.4859 30.8848 60.8983 32.8705C60.34 32.2389 59.7552 31.6412 59.1378 31.0845C62.2098 28.6464 66.0572 27.2144 70.0862 27.2144C78.8163 27.2144 86.0739 33.386 87.5184 41.9591C87.539 41.9591 87.5597 41.9591 87.5804 41.9591C93.2872 41.9591 97.9307 46.6209 97.9307 52.3505C97.9307 58.0787 93.2872 62.7405 87.5804 62.7405H80.8899C80.949 62.2205 80.9904 61.6933 80.9904 61.1557C80.9904 60.8429 80.9697 60.5359 80.949 60.2289" fill="white"/>
<path fill-rule="evenodd" clip-rule="evenodd" d="M19.069 41.9841C20.1826 41.9841 21.2932 42.103 22.3788 42.3395C25.851 34.2673 33.9534 28.8828 42.7204 28.8828C53.66 28.8828 62.7579 36.6187 64.5686 47.3626C64.5951 47.3626 64.6203 47.3626 64.6454 47.3626C71.7996 47.3626 77.6187 53.2053 77.6187 60.386C77.6187 67.5668 71.7996 73.408 64.6454 73.408H19.069C10.4408 73.408 3.42099 66.3594 3.42099 57.6968C3.42099 49.0326 10.4408 41.9841 19.069 41.9841V41.9841ZM6.56831 57.6968C6.56831 64.6248 12.1762 70.2604 19.069 70.2604H64.6454C70.0642 70.2604 74.4728 65.8322 74.4728 60.386C74.4728 54.9399 70.0642 50.5102 64.6454 50.5102C64.285 50.5102 63.8892 50.5381 63.4018 50.5983L61.8038 50.7966L61.6428 49.1942C60.6547 39.4093 52.5198 32.0303 42.7204 32.0303C34.7037 32.0303 27.5081 37.1416 24.8142 44.7468L24.3062 46.1832L22.8558 45.7206C21.6241 45.3299 20.351 45.1331 19.069 45.1331C12.1762 45.1331 6.56831 50.7687 6.56831 57.6968V57.6968Z" fill="white"/>
</svg>
