<svg width="100" height="100" viewBox="0 0 100 100" fill="none" xmlns="http://www.w3.org/2000/svg">
<path fill-rule="evenodd" clip-rule="evenodd" d="M81.0183 60.0146H87.6497C91.9727 60.0146 95.4892 56.4807 95.4892 52.1362C95.4892 47.7902 91.9727 44.2549 87.6497 44.2549C87.3617 44.2549 87.0457 44.2784 86.6572 44.3254L85.3812 44.484L85.2542 43.2062C84.4655 35.3983 77.9759 29.5116 70.1556 29.5116C66.7601 29.5116 63.5552 30.6704 60.9676 32.6562C60.4094 32.0246 59.8245 31.4268 59.2071 30.8702C62.2791 28.432 66.1265 27 70.1556 27C78.8857 27 86.1433 33.1717 87.5877 41.7448C87.6084 41.7448 87.629 41.7448 87.6497 41.7448C93.3566 41.7448 98 46.4066 98 52.1362C98 57.8643 93.3566 62.5261 87.6497 62.5261H80.9593C81.0183 62.0062 81.0597 61.4789 81.0597 60.9413C81.0597 60.6285 81.039 60.3215 81.0183 60.0146" fill="white"/>
<path fill-rule="evenodd" clip-rule="evenodd" d="M19.1378 41.7702C20.2514 41.7702 21.3621 41.8892 22.4476 42.1256C25.9199 34.0534 34.0223 28.6689 42.7893 28.6689C53.7289 28.6689 62.8267 36.4049 64.6374 47.1488C64.664 47.1488 64.6891 47.1488 64.7142 47.1488C71.8684 47.1488 77.6875 52.9914 77.6875 60.1722C77.6875 67.3529 71.8684 73.1941 64.7142 73.1941H19.1378C10.5097 73.1941 3.48984 66.1456 3.48984 57.4829C3.48984 48.8187 10.5097 41.7702 19.1378 41.7702V41.7702ZM6.63716 57.4829C6.63716 64.411 12.245 70.0466 19.1378 70.0466H64.7142C70.133 70.0466 74.5417 65.6183 74.5417 60.1722C74.5417 54.726 70.133 50.2963 64.7142 50.2963C64.3538 50.2963 63.958 50.3242 63.4706 50.3844L61.8726 50.5827L61.7116 48.9803C60.7236 39.1955 52.5887 31.8165 42.7893 31.8165C34.7725 31.8165 27.577 36.9277 24.8831 44.5329L24.375 45.9694L22.9247 45.5067C21.6929 45.116 20.4198 44.9192 19.1378 44.9192C12.245 44.9192 6.63716 50.5548 6.63716 57.4829V57.4829Z" fill="white"/>
</svg>
