<svg width="100" height="100" viewBox="0 0 100 100" fill="none" xmlns="http://www.w3.org/2000/svg">
<path opacity="0.0229128" fill-rule="evenodd" clip-rule="evenodd" d="M99 1H1V99H99V1ZM0 0V100H100V0H0Z" fill="#2B2B2B"/>
<path fill-rule="evenodd" clip-rule="evenodd" d="M27.6554 27.6969C28.84 27.6969 30.0215 27.8224 31.1784 28.0734C34.8723 19.4821 43.4923 13.7515 52.82 13.7515C64.4584 13.7515 74.1384 21.9846 76.0646 33.4214C76.0923 33.4198 76.12 33.4198 76.1461 33.4198C83.7569 33.4198 89.9492 39.6402 89.9492 47.2841C89.9492 54.9265 83.7569 61.1438 76.1461 61.1438H27.6554C18.4769 61.1438 11.0077 53.6407 11.0077 44.4203C11.0077 35.1984 18.4769 27.6969 27.6554 27.6969V27.6969ZM14.3569 44.4203C14.3569 51.7948 20.3215 57.7933 27.6554 57.7933H76.1461C81.9108 57.7933 86.6015 53.079 86.6015 47.2841C86.6015 41.4862 81.9108 36.7703 76.1461 36.7703C75.7615 36.7703 75.3415 36.801 74.8231 36.8637L73.1231 37.0765L72.9508 35.3698C71.9015 24.9555 63.2461 17.102 52.82 17.102C44.2892 17.102 36.6338 22.5418 33.7692 30.6372L33.2277 32.1647L31.6846 31.6734C30.3754 31.2571 29.02 31.0474 27.6554 31.0474C20.3215 31.0474 14.3569 37.0459 14.3569 44.4203V44.4203Z" fill="white"/>
<path fill-rule="evenodd" clip-rule="evenodd" d="M75.9125 70.3671C74.5032 72.9279 73.0925 75.4886 71.6832 78.0493C70.7017 79.8309 67.9602 78.2406 68.9432 76.4559C70.354 73.8952 71.7632 71.3345 73.174 68.7738C74.1555 66.9921 76.8955 68.584 75.9125 70.3671" fill="white"/>
<path fill-rule="evenodd" clip-rule="evenodd" d="M60.1972 70.3671C58.7865 72.9279 57.3757 75.4886 55.9665 78.0493C54.9849 79.8309 52.2434 78.2406 53.2265 76.4559C54.6372 73.8952 56.0465 71.3345 57.4572 68.7738C58.4388 66.9921 61.1788 68.584 60.1972 70.3671" fill="white"/>
<path fill-rule="evenodd" clip-rule="evenodd" d="M43.6772 70.3671C42.2664 72.9279 40.8572 75.4886 39.4464 78.0493C38.4649 79.8309 35.7249 78.2406 36.7064 76.4559C38.1172 73.8952 39.528 71.3345 40.9372 68.7738C41.9187 66.9921 44.6603 68.584 43.6772 70.3671" fill="white"/>
<path fill-rule="evenodd" clip-rule="evenodd" d="M27.7124 70.3671C26.3016 72.9279 24.8924 75.4886 23.4816 78.0493C22.5001 79.8309 19.7601 78.2406 20.7416 76.4559C22.1524 73.8952 23.5631 71.3345 24.9724 68.7738C25.9539 66.9921 28.6954 68.584 27.7124 70.3671" fill="white"/>
<path fill-rule="evenodd" clip-rule="evenodd" d="M62.9965 79.4407C61.5873 82.0014 60.1765 84.5621 58.7673 87.1228C57.7858 88.9045 55.0442 87.3142 56.0273 85.5295C57.4365 82.9688 58.8473 80.408 60.2581 77.8473C61.2381 76.0657 63.9796 77.656 62.9965 79.4407" fill="white"/>
<path fill-rule="evenodd" clip-rule="evenodd" d="M47.2827 79.436C45.8719 81.9967 44.4627 84.5574 43.0519 87.1181C42.0704 88.9013 39.3304 87.3095 40.3119 85.5248C41.7227 82.9641 43.1334 80.4033 44.5427 77.8426C45.5242 76.061 48.2658 77.6528 47.2827 79.436" fill="white"/>
<path fill-rule="evenodd" clip-rule="evenodd" d="M31.2523 78.8025C29.8431 81.3632 28.4323 83.9239 27.0231 86.4847C26.0415 88.2663 23.3 86.676 24.2831 84.8913C25.6938 82.3306 27.1031 79.7699 28.5138 77.2091C29.4954 75.4275 32.2354 77.0178 31.2523 78.8025" fill="white"/>
</svg>
