<svg width="100" height="100" viewBox="0 0 100 100" fill="none" xmlns="http://www.w3.org/2000/svg">
<path opacity="0.0229128" fill-rule="evenodd" clip-rule="evenodd" d="M99 1H1V99H99V1ZM0 0V100H100V0H0Z" fill="#2B2B2B"/>
<path fill-rule="evenodd" clip-rule="evenodd" d="M24.6549 31.9789C25.8126 31.9789 26.9689 32.1027 28.0993 32.3459C31.7132 23.9832 40.1447 18.4038 49.2685 18.4038C60.6531 18.4038 70.1202 26.4195 72.0061 37.5512C72.032 37.5512 72.0592 37.5512 72.0851 37.5512C79.5298 37.5512 85.5869 43.6056 85.5869 51.0467C85.5869 58.4877 79.5298 64.5407 72.0851 64.5407H24.6549C15.6762 64.5407 8.37088 57.2362 8.37088 48.2591C8.37088 39.282 15.6762 31.9789 24.6549 31.9789V31.9789ZM11.6458 48.2591C11.6458 55.4385 17.4803 61.2781 24.6549 61.2781H72.0851C77.7243 61.2781 82.312 56.6886 82.312 51.0467C82.312 45.4033 77.7243 40.8123 72.0851 40.8123C71.7088 40.8123 71.298 40.8422 70.7924 40.9034L69.1276 41.111L68.961 39.4499C67.9326 29.3108 59.4666 21.665 49.2685 21.665C40.9246 21.665 33.4369 26.9599 30.6345 34.8419L30.1045 36.3295L28.5949 35.8502C27.3136 35.4463 25.9879 35.2415 24.6549 35.2415C17.4803 35.2415 11.6458 41.0811 11.6458 48.2591V48.2591Z" fill="white"/>
<path fill-rule="evenodd" clip-rule="evenodd" d="M71.8568 73.5192C70.4778 76.0124 69.0989 78.5041 67.7186 80.9973C66.7591 82.7324 64.0788 81.1836 65.0398 79.4471C66.4187 76.9539 67.7976 74.4608 69.1779 71.9676C70.1374 70.2325 72.8177 71.7813 71.8568 73.5192" fill="white"/>
<path fill-rule="evenodd" clip-rule="evenodd" d="M56.4832 73.5192C55.1043 76.0124 53.7254 78.5041 52.3465 80.9973C51.3856 82.7324 48.7053 81.1836 49.6663 79.4471C51.0452 76.9539 52.4241 74.4608 53.8044 71.9676C54.7639 70.2325 57.4456 71.7813 56.4832 73.5192" fill="white"/>
<path fill-rule="evenodd" clip-rule="evenodd" d="M40.3256 73.5192C38.9452 76.0124 37.5663 78.5041 36.1874 80.9973C35.2279 82.7324 32.5462 81.1836 33.5072 79.4471C34.8861 76.9539 36.2664 74.4608 37.6453 71.9676C38.6048 70.2325 41.2865 71.7813 40.3256 73.5192" fill="white"/>
<path fill-rule="evenodd" clip-rule="evenodd" d="M24.7093 73.5192C23.3304 76.0124 21.95 78.5041 20.5711 80.9973C19.6116 82.7324 16.93 81.1836 17.8909 79.4471C19.2712 76.9539 20.6501 74.4608 22.029 71.9676C22.99 70.2325 25.6702 71.7813 24.7093 73.5192" fill="white"/>
</svg>
