<svg width="100" height="100" viewBox="0 0 100 100" fill="none" xmlns="http://www.w3.org/2000/svg">
<path opacity="0.0229128" fill-rule="evenodd" clip-rule="evenodd" d="M99 1H1V99H99V1ZM0 0V100H100V0H0Z" fill="#2B2B2B"/>
<path fill-rule="evenodd" clip-rule="evenodd" d="M79.211 42.0433H85.6634C89.8693 42.0433 93.2922 38.5396 93.2922 34.2331C93.2922 29.9253 89.8693 26.4216 85.6634 26.4216C85.3828 26.4216 85.0766 26.4434 84.6979 26.491L83.4571 26.6488L83.3322 25.3807C82.5655 17.6413 76.2513 11.8054 68.6427 11.8054C65.3393 11.8054 62.2212 12.9538 59.7047 14.9227C59.1608 14.2968 58.5914 13.7035 57.9898 13.1525C60.979 10.7346 64.7229 9.31543 68.6427 9.31543C77.1363 9.31543 84.1984 15.4343 85.6043 23.9316C85.6245 23.9316 85.6433 23.9316 85.6634 23.9316C91.2161 23.9316 95.7349 28.5537 95.7349 34.2331C95.7349 39.9125 91.2161 44.5333 85.6634 44.5333H79.1546C79.2123 44.0176 79.2513 43.4965 79.2513 42.9631C79.2513 42.6529 79.2311 42.3481 79.211 42.0433" fill="white"/>
<path fill-rule="evenodd" clip-rule="evenodd" d="M19.0068 23.9577C20.0892 23.9577 21.1702 24.0761 22.227 24.3101C25.6056 16.3081 33.4882 10.9702 42.018 10.9702C52.6615 10.9702 61.5123 18.6389 63.2755 29.2887C63.2996 29.2887 63.3251 29.2887 63.3493 29.2887C70.3093 29.2887 75.9722 35.081 75.9722 42.2C75.9722 49.3189 70.3093 55.1085 63.3493 55.1085H19.0068C10.6126 55.1085 3.78285 48.1216 3.78285 39.5331C3.78285 30.9446 10.6126 23.9577 19.0068 23.9577V23.9577ZM6.84457 39.5331C6.84457 46.4017 12.2993 51.9885 19.0068 51.9885H63.3493C68.6214 51.9885 72.9105 47.5977 72.9105 42.2C72.9105 36.8009 68.6214 32.4087 63.3493 32.4087C62.9975 32.4087 62.6134 32.4373 62.1407 32.4958L60.5844 32.6944L60.4286 31.1052C59.4671 21.4051 51.5523 14.0902 42.018 14.0902C34.2174 14.0902 27.2171 19.1559 24.5971 26.6967L24.1016 28.1199L22.6903 27.6614C21.4925 27.275 20.253 27.079 19.0068 27.079C12.2993 27.079 6.84457 32.6659 6.84457 39.5331V39.5331Z" fill="white"/>
<path fill-rule="evenodd" clip-rule="evenodd" d="M63.1357 63.6996C61.8466 66.0835 60.5574 68.4687 59.2669 70.8539C58.3699 72.5139 55.8641 71.0322 56.7625 69.3694C58.0517 66.9856 59.3408 64.6003 60.6313 62.2151C61.5283 60.5565 64.0341 62.0382 63.1357 63.6996" fill="white"/>
<path fill-rule="evenodd" clip-rule="evenodd" d="M19.0581 63.6996C17.7689 66.0835 16.4785 68.4687 15.1893 70.8539C14.2923 72.5139 11.7852 71.0322 12.6835 69.3694C13.974 66.9856 15.2632 64.6003 16.5523 62.2151C17.4507 60.5565 19.9565 62.0382 19.0581 63.6996" fill="white"/>
<path fill-rule="evenodd" clip-rule="evenodd" d="M22.2954 71.5546C21.0062 73.9398 19.7171 76.3251 18.4266 78.7103C17.5296 80.3689 15.0238 78.8872 15.9222 77.2258C17.2113 74.8406 18.5005 72.4567 19.791 70.0715C20.688 68.4115 23.1938 69.8933 22.2954 71.5546" fill="white"/>
<path fill-rule="evenodd" clip-rule="evenodd" d="M85.0645 54.1821C83.774 56.5673 82.4849 58.9525 81.1957 61.3377C80.2987 62.9964 77.7916 61.5146 78.69 59.8533C79.9791 57.468 81.2696 55.0842 82.5587 52.6989C83.4558 51.0389 85.9629 52.5207 85.0645 54.1821" fill="white"/>
<path fill-rule="evenodd" clip-rule="evenodd" d="M73.2529 62.6328C71.9638 65.018 70.6746 67.4019 69.3841 69.7871C68.4871 71.4471 65.9813 69.9654 66.8797 68.304C68.1688 65.9188 69.458 63.5336 70.7485 61.1483C71.6455 59.4883 74.1513 60.9714 73.2529 62.6328" fill="white"/>
<path fill-rule="evenodd" clip-rule="evenodd" d="M76.6313 72.1493C75.3422 74.5346 74.053 76.9198 72.7626 79.305C71.8655 80.9637 69.3584 79.4819 70.2581 77.8206C71.5473 75.4353 72.8364 73.0501 74.1256 70.6662C75.0239 69.0062 77.5297 70.488 76.6313 72.1493" fill="white"/>
<path fill-rule="evenodd" clip-rule="evenodd" d="M63.1357 73.7905C61.8466 76.1744 60.5574 78.5596 59.2669 80.9449C58.3699 82.6049 55.8641 81.1231 56.7625 79.4604C58.0517 77.0765 59.3408 74.6913 60.6313 72.306C61.5283 70.646 64.0341 72.1292 63.1357 73.7905" fill="white"/>
<path fill-rule="evenodd" clip-rule="evenodd" d="M35.1438 54.9629L35.4526 55.1085H35.0753L35.1438 54.9629" fill="white"/>
<path fill-rule="evenodd" clip-rule="evenodd" d="M49.1418 54.8311L49.5742 55.1086H48.9672L49.1418 54.8311" fill="white"/>
<path fill-rule="evenodd" clip-rule="evenodd" d="M29.0272 73.6951H33.7004C34.3194 73.6951 34.8942 74.0066 35.2379 74.5305C35.5804 75.053 35.6448 75.7115 35.4058 76.2912L33.1258 81.8167C32.701 82.8462 34.0235 83.6947 34.7822 82.8794L47.318 69.4099C47.9132 68.7703 47.4597 67.7286 46.586 67.7286H44.411C43.7369 67.7286 43.1151 67.3558 42.7915 66.7571C42.4665 66.157 42.4894 65.4277 42.8519 64.8494L46.9746 58.2818C47.1575 57.9904 47.4775 57.8135 47.8216 57.8135H48.2117C48.998 57.8135 49.4767 58.6791 49.0587 59.3451L46.2345 63.8444C45.8165 64.5103 46.2952 65.376 47.0815 65.376H49.9771C50.7157 65.376 51.3831 65.8209 51.6745 66.5067C51.9672 67.1938 51.8289 67.9898 51.3227 68.5341L30.9274 90.4488C30.5621 90.842 30.08 91.0448 29.5885 91.0448C29.2421 91.0448 28.8916 90.9441 28.576 90.7359C27.8146 90.2352 27.5259 89.2922 27.8764 88.4418L32.42 77.429C32.6916 76.7708 32.2077 76.0476 31.4956 76.0476H28.2833C27.6468 76.0476 27.0626 75.7211 26.7215 75.1768C26.3818 74.6325 26.3388 73.959 26.6101 73.378L33.554 58.393C33.7178 58.0396 34.0718 57.8135 34.4613 57.8135H34.8206C35.551 57.8135 36.035 58.5711 35.7279 59.2339L29.0272 73.6951" fill="white"/>
</svg>
