<svg width="100" height="100" viewBox="0 0 100 100" fill="none" xmlns="http://www.w3.org/2000/svg">
<path opacity="0.0229128" fill-rule="evenodd" clip-rule="evenodd" d="M99 1H1V99H99V1ZM0 0V100H100V0H0Z" fill="#2B2B2B"/>
<path fill-rule="evenodd" clip-rule="evenodd" d="M79.2115 42.0433H85.6639C89.8698 42.0433 93.2927 38.5396 93.2927 34.2331C93.2927 29.9253 89.8698 26.4216 85.6639 26.4216C85.3833 26.4216 85.0771 26.4434 84.6984 26.491L83.4576 26.6488L83.3327 25.3807C82.566 17.6413 76.2518 11.8054 68.6432 11.8054C65.3398 11.8054 62.2217 12.9538 59.7052 14.9227C59.1613 14.2968 58.5919 13.7035 57.9903 13.1525C60.9795 10.7346 64.7234 9.31543 68.6432 9.31543C77.1368 9.31543 84.1989 15.4343 85.6048 23.9316C85.625 23.9316 85.6438 23.9316 85.6639 23.9316C91.2166 23.9316 95.7354 28.5537 95.7354 34.2331C95.7354 39.9125 91.2166 44.5333 85.6639 44.5333H79.1551C79.2128 44.0176 79.2518 43.4965 79.2518 42.9631C79.2518 42.6529 79.2316 42.3481 79.2115 42.0433" fill="white"/>
<path fill-rule="evenodd" clip-rule="evenodd" d="M19.0073 23.9577C20.0897 23.9577 21.1707 24.0761 22.2275 24.3101C25.6061 16.3081 33.4887 10.9702 42.0185 10.9702C52.662 10.9702 61.5128 18.6389 63.2759 29.2887C63.3001 29.2887 63.3256 29.2887 63.3498 29.2887C70.3098 29.2887 75.9727 35.081 75.9727 42.2C75.9727 49.3189 70.3098 55.1085 63.3498 55.1085H19.0073C10.6131 55.1085 3.78334 48.1216 3.78334 39.5331C3.78334 30.9446 10.6131 23.9577 19.0073 23.9577V23.9577ZM6.84505 39.5331C6.84505 46.4017 12.2997 51.9885 19.0073 51.9885H63.3498C68.6219 51.9885 72.9109 47.5977 72.9109 42.2C72.9109 36.8009 68.6219 32.4087 63.3498 32.4087C62.998 32.4087 62.6139 32.4373 62.1412 32.4958L60.5849 32.6944L60.4291 31.1052C59.4676 21.4051 51.5528 14.0902 42.0185 14.0902C34.2179 14.0902 27.2175 19.1559 24.5976 26.6967L24.1021 28.1199L22.6908 27.6614C21.4929 27.275 20.2535 27.079 19.0073 27.079C12.2997 27.079 6.84505 32.6659 6.84505 39.5331V39.5331Z" fill="white"/>
<path fill-rule="evenodd" clip-rule="evenodd" d="M63.1357 63.6996C61.8466 66.0835 60.5574 68.4687 59.2669 70.8539C58.3699 72.5139 55.8641 71.0322 56.7625 69.3694C58.0517 66.9856 59.3408 64.6003 60.6313 62.2151C61.5283 60.5565 64.0341 62.0382 63.1357 63.6996" fill="white"/>
<path fill-rule="evenodd" clip-rule="evenodd" d="M19.0576 63.6996C17.7685 66.0835 16.478 68.4687 15.1888 70.8539C14.2918 72.5139 11.7847 71.0322 12.6831 69.3694C13.9735 66.9856 15.2627 64.6003 16.5518 62.2151C17.4502 60.5565 19.956 62.0382 19.0576 63.6996" fill="white"/>
<path fill-rule="evenodd" clip-rule="evenodd" d="M22.2959 71.5546C21.0067 73.9398 19.7176 76.3251 18.4271 78.7103C17.5301 80.3689 15.0243 78.8872 15.9227 77.2258C17.2118 74.8406 18.501 72.4567 19.7914 70.0715C20.6885 68.4115 23.1942 69.8933 22.2959 71.5546" fill="white"/>
<path fill-rule="evenodd" clip-rule="evenodd" d="M85.0645 54.1821C83.774 56.5673 82.4849 58.9525 81.1957 61.3377C80.2987 62.9964 77.7916 61.5146 78.69 59.8533C79.9791 57.468 81.2696 55.0842 82.5587 52.6989C83.4558 51.0389 85.9629 52.5207 85.0645 54.1821" fill="white"/>
<path fill-rule="evenodd" clip-rule="evenodd" d="M73.2529 62.6328C71.9638 65.018 70.6746 67.4019 69.3841 69.7871C68.4871 71.4471 65.9813 69.9654 66.8797 68.304C68.1688 65.9188 69.458 63.5336 70.7485 61.1483C71.6455 59.4883 74.1513 60.9714 73.2529 62.6328" fill="white"/>
<path fill-rule="evenodd" clip-rule="evenodd" d="M76.6318 72.1493C75.3427 74.5346 74.0535 76.9198 72.763 79.305C71.866 80.9637 69.3589 79.4819 70.2586 77.8206C71.5478 75.4353 72.8369 73.0501 74.126 70.6662C75.0244 69.0062 77.5302 70.488 76.6318 72.1493" fill="white"/>
<path fill-rule="evenodd" clip-rule="evenodd" d="M63.1357 73.7905C61.8466 76.1744 60.5574 78.5596 59.2669 80.9449C58.3699 82.6049 55.8641 81.1231 56.7625 79.4604C58.0517 77.0765 59.3408 74.6913 60.6313 72.306C61.5283 70.646 64.0341 72.1292 63.1357 73.7905" fill="white"/>
<path fill-rule="evenodd" clip-rule="evenodd" d="M35.1443 54.9629L35.4531 55.1085H35.0758L35.1443 54.9629" fill="white"/>
<path fill-rule="evenodd" clip-rule="evenodd" d="M49.1418 54.8311L49.5742 55.1086H48.9672L49.1418 54.8311" fill="white"/>
<path fill-rule="evenodd" clip-rule="evenodd" d="M29.0272 73.6951H33.7004C34.3194 73.6951 34.8942 74.0066 35.2379 74.5305C35.5804 75.053 35.6448 75.7115 35.4058 76.2912L31.0187 86.9233L48.8827 67.7286H44.411C43.7369 67.7286 43.1151 67.3558 42.7915 66.7571C42.4665 66.157 42.4894 65.4277 42.8519 64.8494L47.2686 57.8135H50.0201L45.2731 65.376H49.9771C50.7157 65.376 51.3831 65.8209 51.6745 66.5067C51.9672 67.1938 51.8289 67.9898 51.3227 68.5341L30.9274 90.4488C30.5621 90.842 30.08 91.0448 29.5885 91.0448C29.2421 91.0448 28.8916 90.9441 28.576 90.7359C27.8146 90.2352 27.5259 89.2922 27.8764 88.4418L32.99 76.0476H28.2833C27.6468 76.0476 27.0626 75.7211 26.7215 75.1768C26.3818 74.6325 26.3388 73.959 26.6101 73.378L33.8226 57.8135H36.3861L29.0272 73.6951" fill="white"/>
</svg>
