<svg width="100" height="100" viewBox="0 0 100 100" fill="none" xmlns="http://www.w3.org/2000/svg">
<path opacity="0.0229128" fill-rule="evenodd" clip-rule="evenodd" d="M99 1H1V99H99V1ZM0 0V100H100V0H0Z" fill="#2B2B2B"/>
<path fill-rule="evenodd" clip-rule="evenodd" d="M77.0313 57.4069L76.7497 55.4004C76.6727 54.8513 76.1636 54.4697 75.615 54.5498L64.1398 56.2251C63.9144 56.258 63.6845 56.213 63.4882 56.0974L54.9385 51.0655C54.2814 50.6787 54.2814 49.7285 54.9385 49.3418L63.4866 44.3113C63.6829 44.1958 63.9128 44.1508 64.1382 44.1837L75.6151 45.859C76.1637 45.9391 76.6727 45.5576 76.7498 45.0085L76.8931 43.9882C76.9696 43.4435 76.5917 42.9392 76.0475 42.8597L70.7721 42.0883C69.838 41.9517 69.596 40.7158 70.4096 40.237L81.1526 33.9145C81.6229 33.6377 81.7845 33.035 81.5157 32.5601L81.0144 31.6745C80.7391 31.1881 80.1186 31.0218 79.6369 31.3053L68.9731 37.5816C68.1539 38.0638 67.1874 37.2384 67.5353 36.3538L69.523 31.2999C69.7233 30.7906 69.4771 30.2149 68.9704 30.0081L68.0604 29.6365C67.5444 29.4258 66.9558 29.6776 66.7518 30.1963L62.4295 41.1855C62.3477 41.3934 62.1987 41.568 62.0061 41.6813L53.7332 46.5499C53.0665 46.9422 52.226 46.4615 52.226 45.688V35.7762C52.226 35.5554 52.2991 35.3408 52.4338 35.1659L59.6264 25.8313C59.9589 25.3997 59.8848 24.7814 59.4597 24.4406L58.6817 23.8171C58.2449 23.467 57.6058 23.5436 57.2642 23.9871L54.0181 28.2003C53.4356 28.9564 52.226 28.5444 52.226 27.59V15C52.226 14.4477 51.7783 14 51.226 14H50.2511C49.6988 14 49.2511 14.4477 49.2511 15V27.5906C49.2511 28.545 48.0416 28.957 47.459 28.201L44.2115 23.9872C43.8698 23.5437 43.2305 23.4672 42.7938 23.8175L42.0169 24.4406C41.592 24.7814 41.518 25.3996 41.8505 25.831L49.0432 35.1659C49.178 35.3408 49.2511 35.5554 49.2511 35.7762V45.9687C49.2511 46.7422 48.4106 47.2229 47.7439 46.8306L38.9939 41.6813C38.8014 41.568 38.6523 41.3935 38.5705 41.1856L34.247 30.1966C34.0429 29.6778 33.4539 29.4261 32.9379 29.6371L32.0275 30.0094C31.5211 30.2164 31.2751 30.792 31.4754 31.3011L33.4628 36.3533C33.8108 37.238 32.8442 38.0635 32.025 37.5812L21.3632 31.3053C20.8815 31.0218 20.261 31.1881 19.9857 31.6745L19.4844 32.5601C19.2156 33.035 19.3771 33.6377 19.8475 33.9145L30.5904 40.2369C31.404 40.7158 31.162 41.9517 30.2278 42.0882L24.9516 42.8596C24.4071 42.9392 24.0292 43.4438 24.106 43.9887L24.2498 45.0091C24.3272 45.5579 24.8361 45.9391 25.3845 45.859L36.8603 44.1837C37.0857 44.1508 37.3156 44.1958 37.5119 44.3113L46.0613 49.3418C46.7184 49.7284 46.7184 50.6788 46.0613 51.0655L37.5103 56.0975C37.314 56.213 37.0841 56.258 36.8587 56.2251L25.3846 54.5498C24.8362 54.4697 24.3272 54.851 24.2499 55.3998L24.1059 56.4216C24.0292 56.9666 24.4071 57.4711 24.9517 57.5506L30.227 58.3209C31.1613 58.4573 31.4034 59.6934 30.5897 60.1723L19.8475 66.4943C19.3771 66.771 19.2156 67.3738 19.4844 67.8487L19.9857 68.7343C20.261 69.2207 20.8815 69.387 21.3632 69.1035L32.0263 62.8276C32.8456 62.3454 33.8122 63.1709 33.4641 64.0555L31.4757 69.1088C31.2753 69.6181 31.5215 70.1939 32.0282 70.4008L32.9381 70.7723C33.4541 70.983 34.0427 70.7312 34.2467 70.2125L38.569 59.2233C38.6507 59.0154 38.7998 58.8408 38.9924 58.7275L47.744 53.5781C48.4106 53.1858 49.2511 53.6665 49.2511 54.4399V64.5843C49.2511 64.805 49.178 65.0196 49.0433 65.1945L41.851 74.5317C41.5183 74.9635 41.5928 75.5822 42.0184 75.9228L42.7955 76.5446C43.2324 76.8941 43.8709 76.8173 44.2124 76.3741L47.459 72.1611C48.0416 71.4051 49.2511 71.8171 49.2511 72.7715V84.394C49.2511 84.9463 49.6988 85.394 50.2511 85.394H51.226C51.7783 85.394 52.226 84.9463 52.226 84.394V72.7715C52.226 71.8171 53.4355 71.4051 54.0181 72.1611L57.2647 76.3741C57.6061 76.8173 58.2447 76.8941 58.6815 76.5446L59.4586 75.9228C59.8842 75.5822 59.9587 74.9635 59.626 74.5317L52.4338 65.1961C52.299 65.0212 52.226 64.8066 52.226 64.5858V54.7208C52.226 53.9473 53.0665 53.4666 53.7332 53.8589L62.0061 58.7275C62.1987 58.8408 62.3477 59.0154 62.4295 59.2233L66.7518 70.2125C66.9558 70.7312 67.5444 70.983 68.0604 70.7723L68.9704 70.4007C69.4771 70.1939 69.7233 69.6182 69.523 69.1089L67.5353 64.055C67.1874 63.1704 68.1539 62.345 68.9731 62.8272L79.6369 69.1035C80.1186 69.387 80.7391 69.2207 81.0144 68.7343L81.5157 67.8487C81.7845 67.3738 81.6229 66.771 81.1526 66.4943L70.4103 60.1722C69.5966 59.6933 69.8387 58.4573 70.773 58.3209L77.0313 57.4069" fill="white"/>
</svg>
