<svg width="100" height="100" viewBox="0 0 100 100" fill="none" xmlns="http://www.w3.org/2000/svg">
<path fill-rule="evenodd" clip-rule="evenodd" d="M33.5 73C33.5 72.1716 34.1716 71.5 35 71.5H65.5C66.3284 71.5 67 72.1716 67 73C67 73.8284 66.3284 74.5 65.5 74.5H35C34.1716 74.5 33.5 73.8284 33.5 73Z" fill="white"/>
<path fill-rule="evenodd" clip-rule="evenodd" d="M25.5 64C25.5 63.1716 26.1716 62.5 27 62.5H73C73.8284 62.5 74.5 63.1716 74.5 64C74.5 64.8284 73.8284 65.5 73 65.5H27C26.1716 65.5 25.5 64.8284 25.5 64Z" fill="white"/>
<path fill-rule="evenodd" clip-rule="evenodd" d="M18.5 55C18.5 54.1716 19.1716 53.5 20 53.5H66C66.8284 53.5 67.5 54.1716 67.5 55C67.5 55.8284 66.8284 56.5 66 56.5H20C19.1716 56.5 18.5 55.8284 18.5 55Z" fill="white"/>
<path fill-rule="evenodd" clip-rule="evenodd" d="M25.5 37C25.5 36.1716 26.1716 35.5 27 35.5L59 35.5C59.8284 35.5 60.5 36.1716 60.5 37C60.5 37.8284 59.8284 38.5 59 38.5L27 38.5C26.1716 38.5 25.5 37.8284 25.5 37Z" fill="white"/>
<path fill-rule="evenodd" clip-rule="evenodd" d="M42.5 28C42.5 27.1716 43.1716 26.5 44 26.5H62C62.8284 26.5 63.5 27.1716 63.5 28C63.5 28.8284 62.8284 29.5 62 29.5H44C43.1716 29.5 42.5 28.8284 42.5 28Z" fill="white"/>
<path fill-rule="evenodd" clip-rule="evenodd" d="M33.5 46C33.5 45.1716 34.1716 44.5 35 44.5H81C81.8284 44.5 82.5 45.1716 82.5 46C82.5 46.8284 81.8284 47.5 81 47.5H35C34.1716 47.5 33.5 46.8284 33.5 46Z" fill="white"/>
</svg>
